<svg xmlns="http://www.w3.org/2000/svg" width="1400" height="910" viewBox="0 0 1400 910" font-family="Segoe UI, Helvetica, Arial, Noto Sans, Noto Sans Devanagari, sans-serif"><defs><marker id="ah" markerWidth="10" markerHeight="10" refX="8" refY="5" orient="auto"><path d="M0,0 L10,5 L0,10 z" fill="#5F6368"/></marker><marker id="ahs" markerWidth="7" markerHeight="7" refX="6" refY="3.5" orient="auto" markerUnits="userSpaceOnUse"><path d="M0,0 L7,3.5 L0,7 z" fill="#5F6368"/></marker></defs><rect width="1400" height="910" fill="#FFFFFF"/><text x="20" y="36" font-size="22" font-weight="bold" fill="#1F1F1F" text-anchor="start">Business entity resolution — our pipeline and where we are</text><rect x="800" y="22" width="16" height="16" rx="3" fill="#E6F4EA" stroke="#2E7D32" stroke-width="2"/><text x="822" y="35" font-size="13" font-weight="normal" fill="#4A4A4A" text-anchor="start">Done</text><rect x="880" y="22" width="16" height="16" rx="3" fill="#E3F2FD" stroke="#1565C0" stroke-width="2"/><text x="902" y="35" font-size="13" font-weight="normal" fill="#4A4A4A" text-anchor="start">Built, tested on fake data</text><rect x="1100" y="22" width="16" height="16" rx="3" fill="#FFF4E0" stroke="#C77700" stroke-width="2"/><text x="1122" y="35" font-size="13" font-weight="normal" fill="#4A4A4A" text-anchor="start">Building now</text><rect x="1230" y="22" width="16" height="16" rx="3" fill="#F1F3F4" stroke="#80868B" stroke-width="2"/><text x="1252" y="35" font-size="13" font-weight="normal" fill="#4A4A4A" text-anchor="start">Next</text><rect x="20" y="64" width="172" height="262" rx="10" fill="#E6F4EA" stroke="#2E7D32" stroke-width="2"/><text x="32" y="88" font-size="15" font-weight="bold" fill="#1F1F1F" text-anchor="start">Raw data (TSV)</text><text x="32" y="110" font-size="13" font-weight="normal" fill="#1F1F1F" text-anchor="start">Train</text><text x="42" y="127" font-size="13" font-weight="normal" fill="#1F1F1F" text-anchor="start">2.2M S1, 10.3M S2+S3</text><text x="42" y="144" font-size="13" font-weight="normal" fill="#1F1F1F" text-anchor="start">+ ground truth</text><text x="32" y="161" font-size="13" font-weight="normal" fill="#1F1F1F" text-anchor="start">Test</text><text x="42" y="178" font-size="13" font-weight="normal" fill="#1F1F1F" text-anchor="start">1.7M S1, 10.0M S2+S3</text><text x="42" y="195" font-size="13" font-weight="normal" fill="#1F1F1F" text-anchor="start">France appears only</text><text x="42" y="212" font-size="13" font-weight="normal" fill="#1F1F1F" text-anchor="start">in test</text><text x="32" y="229" font-size="13" font-weight="normal" fill="#1F1F1F" text-anchor="start"></text><text x="32" y="246" font-size="13" font-weight="normal" fill="#1F1F1F" text-anchor="start">EDA on real data</text><text x="32" y="314" font-size="12" font-weight="bold" fill="#2E7D32" text-anchor="start">done (Anumita)</text><rect x="218" y="64" width="172" height="262" rx="10" fill="#E3F2FD" stroke="#1565C0" stroke-width="2"/><text x="230" y="88" font-size="15" font-weight="bold" fill="#1F1F1F" text-anchor="start">1 · Prepare</text><text x="230" y="110" font-size="13" font-weight="normal" fill="#1F1F1F" text-anchor="start">Clean every name and</text><text x="230" y="127" font-size="13" font-weight="normal" fill="#1F1F1F" text-anchor="start">address into views:</text><text x="230" y="144" font-size="13" font-weight="normal" fill="#1F1F1F" text-anchor="start">• ascii  (Hindi → Latin)</text><text x="230" y="161" font-size="13" font-weight="normal" fill="#1F1F1F" text-anchor="start">• canonical</text><text x="245" y="178" font-size="13" font-weight="normal" fill="#1F1F1F" text-anchor="start">Pvt → private,</text><text x="245" y="195" font-size="13" font-weight="normal" fill="#1F1F1F" text-anchor="start">Gujarat → gj</text><text x="230" y="212" font-size="13" font-weight="normal" fill="#1F1F1F" text-anchor="start">• sound skeleton</text><text x="245" y="229" font-size="13" font-weight="normal" fill="#1F1F1F" text-anchor="start">Delhi, दिल्ली → dl</text><text x="230" y="246" font-size="13" font-weight="normal" fill="#1F1F1F" text-anchor="start">• numbers, PIN / ZIP</text><text x="230" y="314" font-size="12" font-weight="bold" fill="#1565C0" text-anchor="start">prepare_data.py</text><rect x="416" y="64" width="172" height="262" rx="10" fill="#E3F2FD" stroke="#1565C0" stroke-width="2"/><text x="428" y="88" font-size="15" font-weight="bold" fill="#1F1F1F" text-anchor="start">2 · Blocking</text><text x="428" y="110" font-size="13" font-weight="normal" fill="#1F1F1F" text-anchor="start">Find likely matches</text><text x="428" y="127" font-size="13" font-weight="normal" fill="#1F1F1F" text-anchor="start">without comparing</text><text x="428" y="144" font-size="13" font-weight="normal" fill="#1F1F1F" text-anchor="start">every pair:</text><text x="428" y="161" font-size="13" font-weight="normal" fill="#1F1F1F" text-anchor="start">• only inside the</text><text x="443" y="178" font-size="13" font-weight="normal" fill="#1F1F1F" text-anchor="start">same country</text><text x="428" y="195" font-size="13" font-weight="normal" fill="#1F1F1F" text-anchor="start">• 5 search methods</text><text x="443" y="212" font-size="13" font-weight="normal" fill="#1F1F1F" text-anchor="start">(zoom below)</text><text x="428" y="229" font-size="13" font-weight="normal" fill="#1F1F1F" text-anchor="start"></text><text x="428" y="246" font-size="13" font-weight="normal" fill="#1F1F1F" text-anchor="start">≈100 candidates / S1</text><text x="428" y="314" font-size="12" font-weight="bold" fill="#1565C0" text-anchor="start">run_blocking.py</text><rect x="614" y="64" width="172" height="262" rx="10" fill="#FFF4E0" stroke="#C77700" stroke-width="2"/><text x="626" y="88" font-size="15" font-weight="bold" fill="#1F1F1F" text-anchor="start">3 · Pre-ranker</text><text x="626" y="110" font-size="13" font-weight="normal" fill="#1F1F1F" text-anchor="start">Quick model on the</text><text x="626" y="127" font-size="13" font-weight="normal" fill="#1F1F1F" text-anchor="start">cheap blocking scores</text><text x="626" y="144" font-size="13" font-weight="normal" fill="#1F1F1F" text-anchor="start">keeps the best</text><text x="626" y="161" font-size="13" font-weight="normal" fill="#1F1F1F" text-anchor="start">≈10 candidates / S1</text><text x="626" y="178" font-size="13" font-weight="normal" fill="#1F1F1F" text-anchor="start"></text><text x="626" y="195" font-size="13" font-weight="normal" fill="#1F1F1F" text-anchor="start">= candidate_pairs.tsv</text><text x="626" y="212" font-size="13" font-weight="normal" fill="#1F1F1F" text-anchor="start">(smaller candidate</text><text x="626" y="229" font-size="13" font-weight="normal" fill="#1F1F1F" text-anchor="start">sets rank higher)</text><text x="626" y="314" font-size="12" font-weight="bold" fill="#C77700" text-anchor="start">building now</text><rect x="812" y="64" width="172" height="262" rx="10" fill="#FFF4E0" stroke="#C77700" stroke-width="2"/><text x="824" y="88" font-size="15" font-weight="bold" fill="#1F1F1F" text-anchor="start">4 · Matcher</text><text x="824" y="110" font-size="13" font-weight="normal" fill="#1F1F1F" text-anchor="start">~80 similarity features</text><text x="824" y="127" font-size="13" font-weight="normal" fill="#1F1F1F" text-anchor="start">per pair: name, address,</text><text x="824" y="144" font-size="13" font-weight="normal" fill="#1F1F1F" text-anchor="start">numbers (conflict vs</text><text x="824" y="161" font-size="13" font-weight="normal" fill="#1F1F1F" text-anchor="start">missing), word rarity,</text><text x="824" y="178" font-size="13" font-weight="normal" fill="#1F1F1F" text-anchor="start">rank among candidates</text><text x="824" y="195" font-size="13" font-weight="normal" fill="#1F1F1F" text-anchor="start"></text><text x="824" y="212" font-size="13" font-weight="normal" fill="#1F1F1F" text-anchor="start">LightGBM →</text><text x="824" y="229" font-size="13" font-weight="normal" fill="#1F1F1F" text-anchor="start">P(same business)</text><text x="824" y="314" font-size="12" font-weight="bold" fill="#C77700" text-anchor="start">building now</text><rect x="1010" y="64" width="172" height="262" rx="10" fill="#FFF4E0" stroke="#C77700" stroke-width="2"/><text x="1022" y="88" font-size="15" font-weight="bold" fill="#1F1F1F" text-anchor="start">5 · Decision</text><text x="1022" y="110" font-size="13" font-weight="normal" fill="#1F1F1F" text-anchor="start">Keep pairs with P ≥ t</text><text x="1022" y="127" font-size="13" font-weight="normal" fill="#1F1F1F" text-anchor="start">(t tuned for macro F0.5)</text><text x="1022" y="144" font-size="13" font-weight="normal" fill="#1F1F1F" text-anchor="start"></text><text x="1022" y="161" font-size="13" font-weight="normal" fill="#1F1F1F" text-anchor="start">One owner: each S2/S3</text><text x="1022" y="178" font-size="13" font-weight="normal" fill="#1F1F1F" text-anchor="start">record joins ≤ 1 S1</text><text x="1022" y="195" font-size="13" font-weight="normal" fill="#1F1F1F" text-anchor="start"></text><text x="1022" y="212" font-size="13" font-weight="normal" fill="#1F1F1F" text-anchor="start">Empty list allowed</text><text x="1022" y="229" font-size="13" font-weight="normal" fill="#1F1F1F" text-anchor="start">(singletons score 1.0)</text><text x="1022" y="314" font-size="12" font-weight="bold" fill="#C77700" text-anchor="start">building now</text><rect x="1208" y="64" width="172" height="262" rx="10" fill="#F1F3F4" stroke="#80868B" stroke-width="2"/><text x="1220" y="88" font-size="15" font-weight="bold" fill="#1F1F1F" text-anchor="start">Outputs</text><text x="1220" y="110" font-size="13" font-weight="normal" fill="#1F1F1F" text-anchor="start">candidate_pairs.tsv</text><text x="1220" y="127" font-size="13" font-weight="normal" fill="#1F1F1F" text-anchor="start">matching_results.tsv</text><text x="1220" y="144" font-size="13" font-weight="normal" fill="#1F1F1F" text-anchor="start"></text><text x="1220" y="161" font-size="13" font-weight="normal" fill="#1F1F1F" text-anchor="start">→ official validator</text><text x="1220" y="178" font-size="13" font-weight="normal" fill="#1F1F1F" text-anchor="start">→ leaderboard upload</text><text x="1235" y="195" font-size="13" font-weight="normal" fill="#1F1F1F" text-anchor="start">(5 submissions)</text><text x="1220" y="212" font-size="13" font-weight="normal" fill="#1F1F1F" text-anchor="start">→ final zip + write-up</text><text x="1220" y="314" font-size="12" font-weight="bold" fill="#80868B" text-anchor="start">next</text><line x1="194" y1="195.0" x2="214" y2="195.0" stroke="#5F6368" stroke-width="2.2" marker-end="url(#ah)"/><line x1="392" y1="195.0" x2="412" y2="195.0" stroke="#5F6368" stroke-width="2.2" marker-end="url(#ah)"/><line x1="590" y1="195.0" x2="610" y2="195.0" stroke="#5F6368" stroke-width="2.2" marker-end="url(#ah)"/><line x1="788" y1="195.0" x2="808" y2="195.0" stroke="#5F6368" stroke-width="2.2" marker-end="url(#ah)"/><line x1="986" y1="195.0" x2="1006" y2="195.0" stroke="#5F6368" stroke-width="2.2" marker-end="url(#ah)"/><line x1="1184" y1="195.0" x2="1204" y2="195.0" stroke="#5F6368" stroke-width="2.2" marker-end="url(#ah)"/><rect x="20" y="356" width="750" height="300" rx="12" fill="#FAFAFA" stroke="#C4C7C5" stroke-width="2"/><text x="36" y="384" font-size="16" font-weight="bold" fill="#1F1F1F" text-anchor="start">Zoom into step 2 · blocking</text><text x="36" y="404" font-size="13" font-weight="normal" fill="#4A4A4A" text-anchor="start">Run separately for each country (US · India · France) and for each target source (S2, S3)</text><rect x="36" y="446" width="190" height="150" rx="10" fill="#FFFFFF" stroke="#9AA0A6" stroke-width="2"/><text x="48" y="470" font-size="14" font-weight="bold" fill="#1F1F1F" text-anchor="start">One S1 record</text><text x="48" y="494" font-size="13" font-weight="normal" fill="#4A4A4A" text-anchor="start">Smart Management</text><text x="48" y="511" font-size="13" font-weight="normal" fill="#4A4A4A" text-anchor="start">Pvt Ltd</text><text x="48" y="528" font-size="13" font-weight="normal" fill="#4A4A4A" text-anchor="start">1920 Purshottam Park</text><text x="48" y="545" font-size="13" font-weight="normal" fill="#4A4A4A" text-anchor="start">Society, Vadodara,</text><text x="48" y="562" font-size="13" font-weight="normal" fill="#4A4A4A" text-anchor="start">Gujarat</text><rect x="282" y="426" width="290" height="40" rx="8" fill="#E3F2FD" stroke="#1565C0" stroke-width="2"/><text x="294" y="443" font-size="13" font-weight="bold" fill="#1F1F1F" text-anchor="start">Nearest neighbours on name</text><text x="294" y="459" font-size="12" font-weight="normal" fill="#4A4A4A" text-anchor="start">FAISS · top 15</text><path d="M226 521 C 254 521, 254 446.0, 278 446.0" fill="none" stroke="#5F6368" stroke-width="1.8" marker-end="url(#ahs)"/><path d="M572 446.0 C 594 446.0, 594 521, 614 521" fill="none" stroke="#5F6368" stroke-width="1.8" marker-end="url(#ahs)"/><rect x="282" y="472" width="290" height="40" rx="8" fill="#E3F2FD" stroke="#1565C0" stroke-width="2"/><text x="294" y="489" font-size="13" font-weight="bold" fill="#1F1F1F" text-anchor="start">Nearest neighbours on address</text><text x="294" y="505" font-size="12" font-weight="normal" fill="#4A4A4A" text-anchor="start">FAISS · top 15</text><path d="M226 521 C 254 521, 254 492.0, 278 492.0" fill="none" stroke="#5F6368" stroke-width="1.8" marker-end="url(#ahs)"/><path d="M572 492.0 C 594 492.0, 594 521, 614 521" fill="none" stroke="#5F6368" stroke-width="1.8" marker-end="url(#ahs)"/><rect x="282" y="518" width="290" height="40" rx="8" fill="#E3F2FD" stroke="#1565C0" stroke-width="2"/><text x="294" y="535" font-size="13" font-weight="bold" fill="#1F1F1F" text-anchor="start">Nearest neighbours on skeleton</text><text x="294" y="551" font-size="12" font-weight="normal" fill="#4A4A4A" text-anchor="start">catches Hindi / Gujarati · top 15</text><path d="M226 521 C 254 521, 254 538.0, 278 538.0" fill="none" stroke="#5F6368" stroke-width="1.8" marker-end="url(#ahs)"/><path d="M572 538.0 C 594 538.0, 594 521, 614 521" fill="none" stroke="#5F6368" stroke-width="1.8" marker-end="url(#ahs)"/><rect x="282" y="564" width="290" height="40" rx="8" fill="#E3F2FD" stroke="#1565C0" stroke-width="2"/><text x="294" y="581" font-size="13" font-weight="bold" fill="#1F1F1F" text-anchor="start">Shared rare words</text><text x="294" y="597" font-size="12" font-weight="normal" fill="#4A4A4A" text-anchor="start">e.g. “purshottam” · top 15</text><path d="M226 521 C 254 521, 254 584.0, 278 584.0" fill="none" stroke="#5F6368" stroke-width="1.8" marker-end="url(#ahs)"/><path d="M572 584.0 C 594 584.0, 594 521, 614 521" fill="none" stroke="#5F6368" stroke-width="1.8" marker-end="url(#ahs)"/><rect x="282" y="610" width="290" height="40" rx="8" fill="#E3F2FD" stroke="#1565C0" stroke-width="2"/><text x="294" y="627" font-size="13" font-weight="bold" fill="#1F1F1F" text-anchor="start">Exact core name</text><text x="294" y="643" font-size="12" font-weight="normal" fill="#4A4A4A" text-anchor="start">legal suffix dropped</text><path d="M226 521 C 254 521, 254 630.0, 278 630.0" fill="none" stroke="#5F6368" stroke-width="1.8" marker-end="url(#ahs)"/><path d="M572 630.0 C 594 630.0, 594 521, 614 521" fill="none" stroke="#5F6368" stroke-width="1.8" marker-end="url(#ahs)"/><rect x="618" y="466" width="136" height="110" rx="10" fill="#E3F2FD" stroke="#1565C0" stroke-width="2"/><text x="686" y="492" font-size="15" font-weight="bold" fill="#1F1F1F" text-anchor="middle">Union</text><text x="686" y="516" font-size="13" font-weight="normal" fill="#4A4A4A" text-anchor="middle">≈100 candidates</text><text x="686" y="533" font-size="13" font-weight="normal" fill="#4A4A4A" text-anchor="middle">per S1, each with</text><text x="686" y="550" font-size="13" font-weight="normal" fill="#4A4A4A" text-anchor="middle">all 5 scores</text><rect x="790" y="356" width="590" height="300" rx="12" fill="#FAFAFA" stroke="#C4C7C5" stroke-width="2"/><text x="806" y="384" font-size="16" font-weight="bold" fill="#1F1F1F" text-anchor="start">Training and tuning (train set only)</text><rect x="806" y="400" width="558" height="48" rx="8" fill="#FFF4E0" stroke="#C77700" stroke-width="2"/><text x="820" y="421" font-size="14" font-weight="bold" fill="#1F1F1F" text-anchor="start">Label every candidate with the ground truth</text><text x="820" y="438" font-size="13" font-weight="normal" fill="#4A4A4A" text-anchor="start">true match = 1, wrong look-alike = 0 → hard negatives for free</text><path d="M1085 450 L1085 466" fill="none" stroke="#5F6368" stroke-width="1.8" marker-end="url(#ahs)"/><rect x="806" y="468" width="558" height="48" rx="8" fill="#FFF4E0" stroke="#C77700" stroke-width="2"/><text x="820" y="489" font-size="14" font-weight="bold" fill="#1F1F1F" text-anchor="start">5-fold cross-validation, grouped by S1</text><text x="820" y="506" font-size="13" font-weight="normal" fill="#4A4A4A" text-anchor="start">every train S1 is scored by a model that never saw it</text><path d="M1085 518 L1085 534" fill="none" stroke="#5F6368" stroke-width="1.8" marker-end="url(#ahs)"/><rect x="806" y="536" width="558" height="48" rx="8" fill="#FFF4E0" stroke="#C77700" stroke-width="2"/><text x="820" y="557" font-size="14" font-weight="bold" fill="#1F1F1F" text-anchor="start">Tune threshold t on those scores</text><text x="820" y="574" font-size="13" font-weight="normal" fill="#4A4A4A" text-anchor="start">maximise macro F0.5, the exact competition metric</text><path d="M1085 586 L1085 602" fill="none" stroke="#5F6368" stroke-width="1.8" marker-end="url(#ahs)"/><rect x="806" y="604" width="558" height="48" rx="8" fill="#FFF4E0" stroke="#C77700" stroke-width="2"/><text x="820" y="625" font-size="14" font-weight="bold" fill="#1F1F1F" text-anchor="start">Slice report: points lost per group</text><text x="820" y="642" font-size="13" font-weight="normal" fill="#4A4A4A" text-anchor="start">singletons, multi-match, cross-script, number conflicts, …</text><text x="20" y="682" font-size="16" font-weight="bold" fill="#1F1F1F" text-anchor="start">Who does what</text><rect x="20" y="694" width="1360" height="206" rx="12" fill="#FAFAFA" stroke="#C4C7C5" stroke-width="2"/><rect x="40" y="724" width="250" height="78" rx="10" fill="#FFFFFF" stroke="#9AA0A6" stroke-width="2"/><text x="54" y="749" font-size="15" font-weight="bold" fill="#1F1F1F" text-anchor="start">Claude</text><text x="54" y="771" font-size="13" font-weight="normal" fill="#4A4A4A" text-anchor="start">writes the code and tests it</text><text x="54" y="788" font-size="13" font-weight="normal" fill="#4A4A4A" text-anchor="start">on fake data (no real data)</text><rect x="340" y="724" width="250" height="78" rx="10" fill="#FFFFFF" stroke="#9AA0A6" stroke-width="2"/><text x="354" y="749" font-size="15" font-weight="bold" fill="#1F1F1F" text-anchor="start">GitHub · your fork</text><text x="354" y="771" font-size="13" font-weight="normal" fill="#4A4A4A" text-anchor="start">branch soham/pipeline-v1</text><text x="354" y="788" font-size="13" font-weight="normal" fill="#4A4A4A" text-anchor="start">(code is already pushed)</text><rect x="640" y="724" width="330" height="78" rx="10" fill="#FFFFFF" stroke="#9AA0A6" stroke-width="2"/><text x="654" y="749" font-size="15" font-weight="bold" fill="#1F1F1F" text-anchor="start">SageMaker Studio · you</text><text x="654" y="771" font-size="13" font-weight="normal" fill="#4A4A4A" text-anchor="start">git pull, then run the scripts</text><text x="654" y="788" font-size="13" font-weight="normal" fill="#4A4A4A" text-anchor="start">on the real data</text><rect x="1020" y="724" width="330" height="78" rx="10" fill="#FFFFFF" stroke="#9AA0A6" stroke-width="2"/><text x="1034" y="749" font-size="15" font-weight="bold" fill="#1F1F1F" text-anchor="start">REPORT printed</text><text x="1034" y="771" font-size="13" font-weight="normal" fill="#4A4A4A" text-anchor="start">you paste it back to Claude</text><text x="1034" y="788" font-size="13" font-weight="normal" fill="#4A4A4A" text-anchor="start">→ we decide the next change</text><line x1="292" y1="763.0" x2="336" y2="763.0" stroke="#5F6368" stroke-width="2.2" marker-end="url(#ah)"/><line x1="592" y1="763.0" x2="636" y2="763.0" stroke="#5F6368" stroke-width="2.2" marker-end="url(#ah)"/><line x1="972" y1="763.0" x2="1016" y2="763.0" stroke="#5F6368" stroke-width="2.2" marker-end="url(#ah)"/><rect x="700" y="826" width="210" height="44" rx="8" fill="#FFFFFF" stroke="#9AA0A6" stroke-width="2"/><text x="805" y="853" font-size="13" font-weight="bold" fill="#1F1F1F" text-anchor="middle">S3 bucket: dataset zip</text><line x1="805" y1="825" x2="805" y2="805" stroke="#5F6368" stroke-width="2.2" marker-end="url(#ah)"/><path d="M1185 804 L1185 886 L165 886 L165 807" fill="none" stroke="#9AA0A6" stroke-width="1.8" marker-end="url(#ahs)"/><text x="1160" y="880" font-size="12" font-weight="normal" fill="#4A4A4A" text-anchor="end" font-style="italic">loop until good, then submit</text></svg>